<?xml version="1.0" encoding="utf-8"?>
<!-- Generator: Adobe Illustrator 24.0.1, SVG Export Plug-In . SVG Version: 6.00 Build 0)  -->
<svg version="1.1" id="Laag_1" xmlns="http://www.w3.org/2000/svg" xmlns:xlink="http://www.w3.org/1999/xlink" x="0px" y="0px"
	 viewBox="0 0 200 200" style="enable-background:new 0 0 200 200;" xml:space="preserve">
<style type="text/css">
	.st0{fill:#070DE9;}
	.st1{fill:#E9D100;}
	.st2{fill:#FFFFFF;}
	.st3{fill:#EAEAEA;}
</style>
<g>
	<path class="st0" d="M30.8,49.7c-3.3,18.4,3,44.4,17.6,69.7c14.7,25.4,34.1,43.7,51.6,50.3V30.3c-29.3,0-55.1,7.6-69.4,19.5H30.8z"
		/>
	<path class="st1" d="M151.5,119.5c14.7-25.4,20.8-51.4,17.8-69.7C154.9,38,129.4,30.3,99.9,30.3v139.5
		C117.4,163.2,136.9,144.8,151.5,119.5L151.5,119.5z"/>
	<path class="st2" d="M134.6,53.1c-4.2-1.2-8.5-2.1-13-2.7c0,1.8,0,3.9-0.3,6c-0.4,4.5-0.9,9.3-1.5,14c2.9,0.9,5.6,2.1,7.7,3.4
		c0,2.9-0.5,6.3-1.4,9.8c-1.4,5.6-3.8,11.5-7.2,17.2c-2.9,5.6-6.9,10.9-11,14.9c-2.7,2.5-5.4,4.5-7.9,6c-2.8-1.7-5.4-3.7-7.8-6
		c-4.2-4.1-8.2-9.1-11.3-14.9C77.5,95,75,89.1,73.6,83.5c-0.9-3.6-1.3-6.9-1.2-9.8c2-1.3,4.5-2.4,7.6-3.4c-0.6-4.7-1.2-9.5-1.5-14
		c0-2.2-0.2-4.2-0.3-6.1c-4.5,0.9-8.9,1.8-13,2.9c-6.5,1.8-12.3,4.3-16.9,7.1c0,5.4,0.7,11.6,2.4,18.3c2.5,10.4,7.2,21.6,13.4,32.2
		s13.6,20.3,21.2,27.7c4.9,4.8,10,8.6,14.5,11.2c4.8-2.7,9.7-6.3,14.7-11.2c7.7-7.5,15-17.2,21.2-27.7c6.2-10.7,10.9-21.7,13.4-32.2
		c1.8-6.7,2.5-13,2.4-18.3C147,57.5,141.2,55.1,134.6,53.1L134.6,53.1z"/>
	<path class="st3" d="M99.9,121.6c-2.4-1.4-5.2-3.4-7.8-6c-4.1-4-8.2-9.1-11.3-14.8C77.6,95,75,89,73.6,83.4
		c-0.9-3.6-1.3-6.9-1.2-9.7c2.1-1.2,4.5-2.4,7.6-3.3c-0.6-4.7-1.2-9.5-1.4-14.1l-0.4-6.1c-4.5,0.9-8.9,1.8-13,2.9
		c-6.5,1.8-12.3,4.3-16.9,7.1c0,5.4,0.7,11.6,2.4,18.3c2.7,10.4,7.2,21.6,13.4,32.2s13.6,20.3,21.2,27.7c4.9,4.8,10,8.6,14.5,11.2
		L99.9,121.6L99.9,121.6z"/>
</g>
</svg>
